<?xml version="1.0" standalone="no"?>
<!DOCTYPE svg PUBLIC "-//W3C//DTD SVG 1.1//EN" "http://www.w3.org/Graphics/SVG/1.1/DTD/svg11.dtd" >
<svg xmlns="http://www.w3.org/2000/svg">
<metadata>Generated by IcoMoon</metadata>
<defs>
<font id="icomoon" horiz-adv-x="1024">
<font-face units-per-em="1024" ascent="960" descent="-64" />
<missing-glyph horiz-adv-x="1024" />
<glyph unicode="&#x20;" horiz-adv-x="512" d="" />
<glyph unicode="&#xe900;" glyph-name="binoculars" d="M596.032 783.424l-2.112 33.6c0 35.008 45.12 63.36 92.288 63.36 45.952 0 84.352-27.072 86.464-60.608l2.496-20.096c1.088-7.104-5.632-13.056-12.544-11.328-17.344 4.416-35.904 6.72-55.168 6.72-33.344 0-67.136-7.36-96.96-20.544-6.464-3.072-13.824 1.536-14.464 8.896zM962.752 185.216c0 58.752-72.192 108.416-157.568 108.416s-157.568-49.472-157.568-108.416c0-58.816 72.192-108.48 157.568-108.48s157.568 49.664 157.568 108.48zM577.152 346.048c0 25.024-29.184 45.376-65.024 45.376s-65.024-20.352-65.024-45.376c0-24.96 29.184-45.312 65.024-45.312s65.024 20.416 65.024 45.312zM376.128 185.216c0 58.752-72.128 108.416-157.568 108.416-85.376 0-157.504-49.472-157.504-108.416 0-58.816 72.128-108.48 157.504-108.48 85.44-0.064 157.568 49.664 157.568 108.48zM1024 185.216c0-93.632-98.176-169.536-218.624-169.536-120.576 0-218.56 75.968-218.56 169.536v77.376c-21.632-9.792-47.232-15.552-74.688-15.552s-53.312 5.76-74.88 15.744v-77.568c0-93.632-97.984-169.536-218.624-169.536-120.64-0.064-218.624 75.904-218.624 169.536 0 6.528 0.64 12.736 1.472 19.072l1.088 6.080c0 0.384 0.192 0.832 0.192 1.28l38.784 197.248c5.056 45.44 38.144 85.248 86.464 109.632l18.432 143.296c0 60.8 68.8 110.592 151.296 110.592 82.24 0 160.96-49.536 160.96-110.4 0-3.136-0.192-6.080-0.64-9.024l-1.088-15.744c16.576 6.080 35.2 9.408 55.168 9.408 19.776 0 38.4-3.328 54.784-9.28l-1.088 15.616c-0.448 2.944-0.64 6.080-0.64 9.024 0 61.056 78.528 110.4 160.896 110.4 82.496 0 151.296-49.728 151.296-110.592l18.432-143.296c48.32-24.576 81.408-64.192 86.464-109.696l38.784-197.248c0-0.448 0.192-0.896 0.192-1.28l1.088-6.080c0.768-6.272 1.472-12.544 1.664-19.008zM228.864 788.48c17.408 4.416 36.032 6.72 55.168 6.72 33.344 0 67.392-7.36 96.896-20.544 6.528-2.944 13.888 1.664 14.272 8.768l2.112 33.536c0 35.008-45.056 63.36-92.288 63.36-45.952 0-84.096-27.072-86.464-60.608l-2.496-20.096c-0.832-6.976 5.632-13.056 12.8-11.136z" />
<glyph unicode="&#xe901;" glyph-name="chair" d="M86.4 383.104c-18.048 40.96-38.592 75.456-58.176 99.904-14.784 18.56-58.24 83.008 5.44 135.168 20.416 16.768 41.856 25.28 63.744 25.28 20.8 0 41.6-8.256 57.152-22.592 79.552-73.6 126.4-142.848 153.92-196.736h-139.2c-33.728-0.064-63.808-16.128-82.88-41.024zM990.336 618.24c-20.416 16.704-41.856 25.216-63.744 25.216-20.8 0-41.6-8.256-57.216-22.592-79.488-73.6-126.4-142.848-153.856-196.736h139.136c33.728 0 63.808-16.128 82.944-40.96 18.048 40.96 38.592 75.456 58.112 99.904 14.848 18.496 58.304 82.944-5.376 135.168zM916.16 181.248v138.24c0 33.984-27.648 61.632-61.568 61.632h-685.312c-33.92 0-61.504-27.648-61.504-61.632v-138.24c0-33.984 27.584-61.632 61.504-61.632h685.312c33.984 0 61.568 27.648 61.568 61.632zM777.344 76.608l10.176-80.256h51.776l10.112 80.256h-72.064zM667.52 424.064c29.504 63.936 81.344 143.808 172.672 228.288 12.864 11.968 27.84 20.928 43.968 26.688-57.92 128.96-202.88 220.608-372.16 220.608-169.344 0-314.304-91.648-372.16-220.608 16.064-5.76 31.040-14.72 43.968-26.688 91.392-84.544 143.168-164.352 172.672-228.288h311.040zM174.528 76.608l10.176-80.256h51.776l10.112 80.256h-72.064z" />
<glyph unicode="&#xe902;" glyph-name="check" d="M325.76 219.52l-244.288 246.080-81.472-81.984 325.76-328.192 698.24 703.104-81.344 82.048z" />
<glyph unicode="&#xe903;" glyph-name="clothing" d="M512 807.296c44.352 0 82.688 28.288 96.448 69.888-26.24-7.232-59.712-11.584-96.448-11.584-36.672 0-70.144 4.352-96.384 11.584 13.696-41.6 52.032-69.888 96.384-69.888zM1022.72 756.096c-2.112 5.888-6.528 10.752-12.16 13.44l-195.264 90.112c-41.536 14.080-83.904 25.216-126.592 33.344-1.472 0.256-3.008 0.384-4.48 0.384-10.56 0-20.032-7.296-22.464-17.984-15.488-68.672-76.352-120.064-149.76-120.064-73.472 0-134.272 51.392-149.888 120.064-2.368 10.688-11.84 17.984-22.4 17.984-1.472 0-2.944-0.128-4.48-0.384-42.688-8.128-84.992-19.264-126.592-33.344l-195.136-90.112c-5.76-2.688-10.176-7.552-12.16-13.44-2.112-5.952-1.728-12.416 1.216-18.048l84.736-167.296c3.968-7.936 12.032-12.672 20.608-12.672 2.24 0 4.416 0.32 6.656 0.96l94.080 27.904v-561.216c0-12.736 10.432-23.104 23.168-23.104h560.384c12.736 0 23.104 10.368 23.104 23.104v561.216l94.208-27.904c2.176-0.64 4.416-1.024 6.656-1.024 8.512 0 16.576 4.8 20.544 12.736l84.8 167.296c2.816 5.632 3.264 12.096 1.216 18.048z" />
<glyph unicode="&#xe904;" glyph-name="dice" d="M456.704 29.12l275.52-93.12 241.28 238.016-277.44 91.328-239.36-236.224zM580.736 43.712c-14.592-14.464-38.4-20.608-53.12-13.952-14.72 6.72-14.912 23.872-0.32 38.272 14.656 14.4 38.4 20.608 53.12 13.888 14.848-6.656 14.912-23.872 0.32-38.208zM669.76 12.864c-14.592-14.4-38.4-20.544-53.184-13.888-14.656 6.72-14.848 23.808-0.256 38.208 14.656 14.464 38.4 20.672 53.12 13.952 14.784-6.72 14.848-23.872 0.32-38.272zM849.216 150.656c14.592 14.4 38.4 20.608 53.056 13.952 14.784-6.656 14.912-23.808 0.32-38.336-14.592-14.4-38.4-20.48-53.056-13.888-14.848 6.72-14.976 23.872-0.32 38.272zM760.512 179.392c14.592 14.464 38.336 20.672 53.056 14.016 14.72-6.72 14.848-23.872 0.256-38.336-14.592-14.4-38.336-20.544-53.12-13.952-14.72 6.848-14.848 23.872-0.192 38.272zM758.208 22.4c14.72-6.72 14.848-23.872 0.32-38.272-14.656-14.4-38.464-20.608-53.184-13.888s-14.848 23.744-0.32 38.144c14.592 14.4 38.4 20.736 53.184 14.016zM724.608 224.128c14.656-6.72 14.784-23.872 0.192-38.272s-38.336-20.608-53.056-13.952-14.912 23.808-0.256 38.208c14.592 14.528 38.336 20.736 53.12 14.016zM977.984 206.976l-91.2 269.632-273.28 89.92 91.072-269.696 273.408-89.856zM774.976 418.496c10.24 10.048 30.72 6.144 45.824-8.768 15.104-14.848 19.072-35.136 8.832-45.184-10.176-10.048-30.656-6.144-45.824 8.704-15.040 14.848-19.072 35.072-8.832 45.248zM324.096 960l-257.664-127.168 257.664-127.104 257.664 127.104-257.664 127.168zM324.096 807.040c-21.312 0-38.656 11.584-38.656 25.792 0 14.272 17.344 25.792 38.656 25.792 21.376 0 38.656-11.584 38.656-25.792s-17.28-25.792-38.656-25.792zM390.4 472.512c12.288 4.48 22.656-2.624 26.176-16.192l154.304 152.32 31.36-10.304v208.192l-261.632-129.152v-295.936l26.496 26.112c-2.752 4.736-4.352 10.816-4.352 18.048 0 20.352 12.352 41.408 27.648 46.912zM558.72 750.080c15.232 5.568 27.52-6.464 27.52-26.816s-12.224-41.344-27.52-46.912-27.584 6.464-27.584 26.816c0 20.352 12.352 41.344 27.584 46.912zM480.064 616.832c15.232 5.568 27.648-6.464 27.648-26.816s-12.352-41.344-27.648-46.912c-15.232-5.568-27.584 6.464-27.584 26.816 0 20.416 12.352 41.408 27.584 46.912zM362.752 621.312c0 20.352 12.352 41.344 27.648 46.912 15.232 5.568 27.648-6.464 27.648-26.816s-12.352-41.344-27.648-46.912-27.648 6.4-27.648 26.816zM46.016 469.824l257.92-124.672 3.712 3.712v328.512l-261.632 129.152v-336.704zM257.28 472.512c15.232-5.504 27.584-26.56 27.584-46.912s-12.352-32.384-27.648-26.816c-15.232 5.568-27.584 26.56-27.584 46.912s12.352 32.384 27.648 26.816zM176.832 620.992c15.232-5.568 27.584-26.56 27.584-46.912s-12.352-32.384-27.584-26.88c-15.296 5.568-27.584 26.56-27.584 46.976 0 20.352 12.288 32.384 27.584 26.816zM94.016 750.080c15.232-5.568 27.584-26.56 27.584-46.912s-12.352-32.384-27.648-26.816-27.52 26.56-27.52 46.912c0 20.352 12.288 32.384 27.584 26.816zM580.16 562.176l-241.28-238.080 94.464-271.872 239.36 236.096-92.544 273.856zM477.184 141.888c-14.656-14.464-32-14.272-38.784 0.256-6.72 14.592-0.448 38.080 14.144 52.48 14.656 14.4 31.936 14.272 38.72-0.256 6.784-14.592 0.512-38.080-14.080-52.48zM557.632 424.064c-14.592-14.4-31.936-14.272-38.72 0.32-6.784 14.528-0.448 38.016 14.080 52.416s31.936 14.272 38.72-0.256c6.848-14.592 0.512-38.016-14.080-52.48z" />
<glyph unicode="&#xe905;" glyph-name="entertainment" d="M149.76 469.184c-49.792 0-90.24-39.808-90.24-88.704 0-48.96 40.448-88.768 90.24-88.768s90.304 39.808 90.304 88.768c0 48.832-40.448 88.704-90.304 88.704zM149.76 339.136c-23.168 0-41.92 18.496-41.92 41.344 0 22.784 18.752 41.216 41.92 41.216s41.984-18.432 41.984-41.216c0.064-22.848-18.752-41.344-41.984-41.344zM300.864 256.64v445.632c0 18.24-15.040 33.024-33.536 33.024h-235.072c-18.56 0-33.536-14.784-33.536-33.024v-445.632c0-18.24 15.040-33.024 33.536-33.024h235.008c18.56 0 33.6 14.784 33.6 33.024zM149.76 652.736c23.168 0 41.984-18.496 41.984-41.28s-18.816-41.28-41.984-41.28c-23.168 0-41.92 18.496-41.92 41.28 0 22.848 18.816 41.28 41.92 41.28zM149.76 273.856c-59.712 0-108.352 47.808-108.352 106.56 0 58.688 48.64 106.56 108.352 106.56 59.776 0 108.352-47.808 108.352-106.56 0.064-58.752-48.576-106.56-108.352-106.56zM686.976 306.112v49.536h-352.512v-49.472c0-18.24 15.040-33.024 33.6-33.024h285.312c18.56 0 33.6 14.72 33.6 32.96zM686.976 487.68c0 18.24-15.040 33.024-33.6 33.024h-285.376c-18.56 0-33.6-14.72-33.6-33.024v-115.52h352.576v115.52zM535.872 405.184h-167.872v82.496h167.872v-82.496zM603.072 405.184c-23.168 0-41.984 18.496-41.984 41.28s18.816 41.216 41.984 41.216 41.92-18.496 41.92-41.28-18.752-41.216-41.92-41.216zM871.616 469.184c-49.728 0-90.24-39.808-90.24-88.704 0-48.96 40.512-88.768 90.24-88.768s90.304 39.808 90.304 88.704c0 48.896-40.512 88.768-90.304 88.768zM871.616 339.136c-23.168 0-41.92 18.496-41.92 41.344 0 22.784 18.752 41.216 41.92 41.216s41.984-18.432 41.984-41.216c0-22.848-18.816-41.344-41.984-41.344zM989.12 735.232h-235.008c-18.56 0-33.536-14.784-33.536-33.024v-445.632c0-18.24 14.976-33.024 33.536-33.024h235.008c18.56 0 33.6 14.72 33.6 33.024v445.696c0 18.176-15.040 32.96-33.6 32.96zM871.616 652.736c23.168 0 41.984-18.496 41.984-41.28s-18.816-41.28-41.984-41.28-41.92 18.496-41.92 41.28c0 22.848 18.752 41.28 41.92 41.28zM871.616 273.856c-59.712 0-108.352 47.808-108.352 106.56 0 58.688 48.704 106.56 108.352 106.56 59.776 0 108.352-47.808 108.352-106.56s-48.576-106.56-108.352-106.56zM368 256.64h67.2v-33.024h-67.2v33.024zM586.24 256.64h67.136v-33.024h-67.136v33.024z" />
<glyph unicode="&#xe906;" glyph-name="envelope" d="M31.424 669.952c-20.928 28.16-31.424 54.4-31.424 78.592 0 29.952 7.936 54.848 23.744 74.816s38.4 29.952 67.776 29.952h841.088c24.768 0 46.208-9.024 64.256-27.072 18.048-17.984 27.136-39.68 27.136-65.024 0-30.336-9.344-59.328-28.032-86.912-18.688-27.648-41.92-51.264-69.76-70.784-143.168-100.096-232.32-162.56-267.456-187.136-3.776-2.688-11.904-8.512-24.256-17.536-12.288-9.088-22.528-16.384-30.784-21.888-8.192-5.632-18.176-11.84-29.696-18.752-11.648-6.912-22.592-12.16-32.896-15.552-10.24-3.456-19.84-5.12-28.544-5.12h-1.152c-8.768 0-18.304 1.664-28.544 5.12s-21.248 8.64-32.896 15.552c-11.648 6.912-21.568 13.12-29.76 18.752-8.128 5.504-18.432 12.8-30.784 21.76-12.416 9.024-20.544 14.848-24.32 17.536-34.624 24.64-84.544 59.712-149.696 105.088-65.152 45.568-104.192 72.896-117.184 82.112-23.552 16.128-45.888 38.272-66.816 66.496zM966.784 541.888c-124.928-85.248-219.776-151.424-284.544-198.656-21.696-16.128-39.296-28.672-52.8-37.696-13.504-9.088-31.552-18.24-54.016-27.648-22.528-9.408-43.456-14.144-62.848-14.144h-1.152c-19.392 0-40.384 4.672-62.848 14.144-22.464 9.344-40.448 18.56-54.016 27.648-13.504 8.96-31.168 21.504-52.864 37.632-51.392 38.016-146.048 104.256-283.968 198.72-21.696 14.528-40.96 31.232-57.728 50.048v-457.152c0-25.344 8.96-46.976 26.88-65.088 17.856-18.048 39.424-27.072 64.576-27.072h841.088c25.152 0 46.656 9.024 64.576 27.072s26.88 39.68 26.88 65.088v457.152c-16.448-18.432-35.52-35.136-57.216-50.048z" />
<glyph unicode="&#xe907;" glyph-name="everything-else" d="M156.608 837.696v0c-9.728 0-18.816-3.776-25.728-10.624-6.912-6.912-10.816-16.128-10.816-25.92v-547.264c0-20.096 16.448-36.48 36.672-36.48 85.312-0.256 228.16-17.92 326.784-120.704v572.8c0 6.784-1.728 13.184-5.056 18.496-80.896 129.728-236.352 149.504-321.856 149.696zM903.936 253.888v547.328c0 9.792-3.904 18.944-10.816 25.92-6.848 6.848-16 10.624-25.664 10.624h-0.064c-85.504-0.192-241.024-19.968-321.92-149.696-3.328-5.376-5.056-11.776-5.056-18.56v-572.8c98.624 102.72 241.472 120.448 326.72 120.704 20.288-0.064 36.8 16.32 36.8 36.48zM987.392 711.424h-26.56v-457.536c0-51.328-41.92-93.056-93.44-93.184-72.384-0.256-191.616-14.336-276.096-93.952 146.112 35.648 300.096 12.416 387.904-7.488 11.008-2.432 22.336 0.128 31.104 7.104 8.64 6.912 13.696 17.344 13.696 28.48v580.096c0 20.16-16.448 36.48-36.608 36.48zM63.168 253.888v457.536h-26.56c-20.16 0-36.608-16.32-36.608-36.48v-580.096c0-11.2 5.056-21.568 13.76-28.48 8.768-6.976 20.096-9.536 31.040-7.104 87.808 19.968 241.792 43.136 387.968 7.488-84.48 79.616-203.776 93.696-276.16 93.952-51.456 0.128-93.44 41.856-93.44 93.184z" />
<glyph unicode="&#xe908;" glyph-name="facebook" d="M870.4 857.6v-153.6h-102.4c-30.656 0-51.2-20.48-51.2-51.2v-102.4h153.6v-153.6h-153.6v-358.4h-153.6v358.4h-102.4v153.6h102.4v128c0 97.28 81.92 179.2 179.2 179.2h128zM921.6 960h-819.2c-56.32 0-102.4-46.080-102.4-102.4v-819.2c0-56.256 46.080-102.4 102.4-102.4h819.2c56.256 0 102.4 46.144 102.4 102.4v819.2c0 56.32-46.144 102.4-102.4 102.4z" />
<glyph unicode="&#xe909;" glyph-name="heart-line" d="M517.12 117.76h-5.12l-5.12 5.12c-245.76 220.096-404.48 363.52-404.48 512 0 102.4 76.8 179.2 179.2 179.2 76.8 0 153.6-51.2 184.32-122.88h97.28c25.6 71.68 102.464 122.88 179.2 122.88 102.464 0 179.264-76.8 179.264-179.2-0.064-148.48-158.784-291.904-404.544-517.12zM742.4 916.48c-86.976 0-174.080-40.96-230.4-107.52-56.32 66.56-143.36 107.52-230.4 107.52-158.72 0-281.6-122.88-281.6-281.6 0-194.56 174.080-353.344 440.32-588.8l71.68-66.56 71.68 66.56c261.12 240.64 440.32 399.36 440.32 588.8 0 158.72-122.88 281.6-281.6 281.6z" />
<glyph unicode="&#xe90a;" glyph-name="heart-stoke" d="M527.104 234.816l-39.872 39.872c-108.48 95.936-187.264 165.632-187.264 254.912 0 73.664 57.664 131.328 131.328 131.328 35.2 0 70.016-14.144 95.872-38.336 25.792 24.192 60.608 38.336 95.808 38.336 73.664 0 131.392-57.664 131.392-131.328 0-89.28-78.848-158.976-187.968-255.552l-39.296-39.232zM431.232 632.576c-57.728 0-102.912-45.248-102.912-102.912 0-72.96 64.448-133.504 178.368-234.24l20.416-20.352 19.776 19.776c114.56 101.376 179.008 161.92 179.008 234.88 0 57.728-45.248 102.912-102.976 102.912-31.616 0-64.192-15.232-84.928-39.68l-10.816-12.8-10.816 12.8c-20.8 24.384-53.376 39.616-85.12 39.616zM938.816 959.104h-853.632c-47.040 0-85.184-38.144-85.184-85.184v-851.904c0-47.040 38.144-85.184 85.184-85.184h853.632c47.040 0 85.184 38.144 85.184 85.184v851.904c0 47.040-38.144 85.184-85.184 85.184zM993.792 25.6c0-31.36-25.408-56.832-56.768-56.832h-850.048c-31.36 0-56.832 25.408-56.832 56.832v850.112c0 31.36 25.408 56.832 56.832 56.832h850.112c31.296 0 56.768-25.408 56.768-56.832v-850.112z" />
<glyph unicode="&#xe90b;" glyph-name="heart-stroke" d="M727.872 928.256c-79.296 0-157.824-31.808-215.808-86.464-58.368 54.656-136.704 86.464-216.128 86.464-165.952 0-295.936-129.984-295.936-296 0-201.216 177.6-358.4 422.208-574.656l89.856-89.856 88.192 88.448c245.952 217.664 423.744 374.848 423.744 576.064 0 166.016-130.048 296-296.128 296zM556.544 102.784l-44.48-44.48-46.080 45.952c-256.768 227.072-402.048 363.584-402.048 528 0 130.048 101.824 232 232 232 71.552 0 144.832-34.304 191.552-89.408l24.576-28.864 24.384 28.864c46.656 55.104 120.128 89.408 191.424 89.408 130.112 0 232.128-101.952 232.128-232 0-164.416-145.344-300.928-403.456-529.472z" />
<glyph unicode="&#xe90c;" glyph-name="heart" d="M512-23.040l-71.68 71.68c-266.24 235.456-440.32 394.24-440.32 588.8 0 158.72 122.88 281.6 281.6 281.6 87.040 0 174.080-40.96 230.4-107.52 56.32 66.56 143.36 107.52 230.4 107.52 158.72 0 281.6-122.88 281.6-281.6 0-194.56-174.144-353.344-440.32-588.8l-71.68-71.68z" />
<glyph unicode="&#xe90d;" glyph-name="hobbies" d="M509.12 648.96c19.52 0 35.392-15.872 35.392-35.392s-15.872-35.392-35.392-35.392-35.392 15.872-35.392 35.392 15.872 35.392 35.392 35.392zM782.208 149.76c-17.024 9.216-14.4 25.6-14.4 35.968v144.32c49.792 10.176 159.36 11.136 159.36 109.568 0 48.64-39.68 66.496-88.064 61.504-38.592-3.968-56.768-29.696-122.112-5.056-8.32 3.072-31.424 23.488-18.176 39.616 33.792 41.28 52.928 95.040 52.928 153.024 0 9.472-0.128 28.48 8.448 32 43.52 18.176 72.96 63.296 72.96 114.304 0 68.992-54.976 124.992-122.752 124.992-36.736 0-69.76-16.448-92.224-42.56-2.048-2.24-5.632-6.976-14.208-3.264-30.592 14.4-56.064 18.624-91.968 18.624-38.528 0-66.496-5.184-98.752-21.632-10.176-3.136-17.088 7.424-22.144 12.48-22.144 22.464-52.736 36.352-86.528 36.352-67.84 0-122.816-56-122.816-124.992 0-53.056 32.384-98.304 78.144-116.48 4.416-1.728 11.264-7.040 12.352-29.76 2.752-57.472 19.584-110.4 52.224-152.128 12.16-15.424 0.448-35.392-17.792-41.024-66.496-20.608-83.328 1.6-121.728 5.568-48.448 4.992-88.128-12.928-88.128-61.568 0-95.808 109.568-99.2 159.424-109.248v-144.64c0-10.688 1.472-25.472-20.672-39.168-61.824-25.472-150.528-27.456-150.528-113.92 0-52.608 43.648-105.408 95.296-95.296 64.704 12.736 98.688 34.176 196.8 78.656 21.184 9.6 36.032 4.8 45.376 3.52 27.84-4.032 58.048-5.504 89.472-5.504 35.136 0 68.672 1.92 99.2 6.912 7.68 1.344 25.664 1.92 42.176-4.736 95.808-44.544 126.592-66.048 190.272-78.848 51.648-10.368 95.296 42.688 95.296 95.296 0 86.464-95.040 91.392-156.736 117.12zM628.032 578.176c0-51.52-53.312-93.312-118.912-93.312-65.664 0-118.912 41.792-118.912 93.312s53.248 93.312 118.912 93.312c65.664 0 118.912-41.792 118.912-93.312zM337.984 732.032c0 23.488 18.944 42.496 42.432 42.496 23.424 0 42.432-19.008 42.432-42.496 0-23.424-19.008-42.432-42.432-42.432s-42.432 19.008-42.432 42.432zM655.68 206.848c0-79.296-64.384-114.944-143.68-114.944-79.36 0-143.68 35.648-143.68 114.944v67.584c0 79.36 64.32 143.68 143.68 143.68s143.68-64.32 143.68-143.68v-67.584zM622.72 689.6c-23.424 0-42.432 19.008-42.432 42.496 0 23.424 19.008 42.432 42.432 42.432 23.488 0 42.496-19.008 42.496-42.432 0.064-23.488-18.944-42.496-42.496-42.496z" />
<glyph unicode="&#xe90e;" glyph-name="list" d="M227.584 732.416v-113.792h796.416v113.792h-796.416zM227.584 163.584h796.416v113.728h-796.416v-113.728zM227.584 391.104h796.416v113.792h-796.416v-113.792zM0 618.688h113.792v113.728h-113.792v-113.728zM0 163.584h113.792v113.728h-113.792v-113.728zM0 391.104h113.792v113.792h-113.792v-113.792z" />
<glyph unicode="&#xe90f;" glyph-name="logout" d="M251.648 809.28c20.032-19.2 17.536-53.376-1.664-72.576-0.832 0-73.408-72.512-73.408-72.512h284.416c8.32 0 17.472-2.56 25.088-6.656 30.016-16.704 35.84-60.864 12.48-85.888-9.216-10.944-23.36-16.768-37.568-16.768h-284.352l73.344-72.576c19.2-19.968 21.696-53.376 1.664-73.408-20.864-20.864-52.544-19.968-73.344 0.896l-162.688 162.624c-20.864 20.864-20.864 51.712 0 72.576l162.688 162.688c20.8 20.8 53.376 21.632 73.344 1.6zM306.688 724.992h100.096v98.432c0 14.208 10.816 25.024 25.024 25.024h398.656l-224.32-115.072c-15.808-8.384-26.688-25.856-26.688-44.224v-424.64h-147.648c-14.144 0-25.024 10.88-25.024 25.088v198.528h-100.096v-273.6c0-27.584 22.528-50.048 50.048-50.048h223.488v-191.808c0-19.2 20.032-30.848 36.736-22.528l380.288 196.8c15.936 8.384 26.752 25.856 26.752 44.224v707.328c0 27.52-22.528 50.048-50.048 50.048h-617.216c-27.52 0-50.048-22.528-50.048-50.048v-173.504z" />
<glyph unicode="&#xe910;" glyph-name="menu-bar" d="M0 789.312v-113.728h1024v113.728h-1024zM0 391.104h1024v113.792h-1024v-113.792zM0 106.688h1024v113.728h-1024v-113.728z" />
<glyph unicode="&#xe911;" glyph-name="next-arrow" d="M748.224 172.224v228.48h-748.224v94.528h748.224v228.544l275.776-275.776-275.776-275.776z" />
<glyph unicode="&#xe912;" glyph-name="next" d="M774.784 470.784v0c0 0.064 0 0.064 0 0l-479.552 479.616c-12.864 12.864-33.088 12.672-45.76 0.128-12.672-12.736-12.544-33.152 0.064-45.824l456.768-456.704-456.768-456.704c-12.864-12.928-12.672-33.216-0.064-45.824 12.672-12.672 33.152-12.544 45.76 0.128l479.488 479.488c0 0 0 0 0.064 0 0 0 0 0 0 0 1.408 1.408 2.048 3.2 3.2 4.8 8.896 12.736 8.064 29.76-3.2 40.896z" />
<glyph unicode="&#xe913;" glyph-name="pre-arrow" d="M0 448l275.776 275.776v-228.544h748.224v-94.528h-748.224v-228.48l-275.776 275.776z" />
<glyph unicode="&#xe914;" glyph-name="pre" d="M249.216 470.784v0c0 0.064 0 0.064 0 0l479.552 479.616c12.864 12.864 33.152 12.672 45.76 0.064 12.672-12.736 12.544-33.152-0.064-45.76l-456.768-456.704 456.768-456.704c12.864-12.928 12.672-33.216 0.064-45.824-12.672-12.672-33.152-12.544-45.76 0.128l-479.488 479.488c0 0 0 0-0.064 0 0 0 0 0 0 0-1.408 1.408-2.048 3.2-3.2 4.8-8.896 12.736-8.064 29.76 3.2 40.896z" />
<glyph unicode="&#xe915;" glyph-name="remove" d="M1024 857.6l-102.464 102.4-409.536-409.6-409.6 409.6-102.4-102.4 409.6-409.6-409.6-409.536 102.4-102.464 409.6 409.536 409.536-409.536 102.464 102.464-409.536 409.536z" />
<glyph unicode="&#xe916;" glyph-name="road" d="M1018.112 584.064c-4.992 6.016-12.48 9.536-20.352 9.536h-99.648c-24.576 63.936-56.64 126.528-93.056 150.144-126.016 81.664-460.096 81.664-586.112 0-36.416-23.68-68.352-86.336-93.12-150.144h-99.584c-7.936 0-15.36-3.52-20.288-9.536-5.056-6.016-7.040-13.888-5.376-21.504l14.72-70.464c2.496-12.096 13.248-20.608 25.664-20.608h29.504c-28.48-32.448-42.304-73.152-42.432-114.048-0.192-50.368 19.264-96 54.784-128.192 0.384-0.32 0.768-0.576 1.152-0.896v-98.624c0-21.376 17.664-38.72 39.36-38.72h91.904c21.696 0 39.36 17.344 39.36 38.72v39.616h514.88v-39.616c0-21.376 17.6-38.72 39.36-38.72h91.968c21.632 0 39.296 17.344 39.296 38.72v96.64c37.696 34.048 55.68 80.896 55.936 127.552 0.128 42.176-14.272 84.48-44.416 117.568h31.488c12.352 0 23.168 8.576 25.6 20.608l14.784 70.464c1.536 7.616-0.448 15.488-5.376 21.504zM262.144 679.040c100.416 65.152 399.296 65.152 499.712 0 19.52-12.608 44.544-63.616 67.584-126.016h-634.816c22.912 62.464 48 113.408 67.52 126.016zM144.512 347.776c0 42.112 34.688 76.16 77.376 76.16s77.312-34.048 77.312-76.16-34.624-76.16-77.312-76.16-77.376 33.984-77.376 76.16zM803.136 271.552c-42.752 0-77.376 34.048-77.376 76.16s34.624 76.16 77.376 76.16 77.376-34.048 77.376-76.16-34.624-76.16-77.376-76.16z" />
<glyph unicode="&#xe917;" glyph-name="services" d="M1007.552 743.296l-168.704-168.64-147.456 52.736-52.736 147.52 168.704 168.64c-110.656 36.992-237.696 11.52-325.76-76.608-86.528-86.464-112.64-210.368-78.592-319.552-4.544-3.584-8.96-7.424-13.184-11.648l-346.368-346.368c-57.92-57.984-57.92-151.936 0-209.856 57.984-57.984 152-57.984 209.92 0l346.304 346.304c4.224 4.16 8.128 8.704 11.776 13.312 109.184-34.112 233.088-7.936 319.552 78.528 88.128 88.064 113.6 215.040 76.544 325.632z" />
<glyph unicode="&#xe918;" glyph-name="technology" d="M998.912 866.688c-16.768 16.704-36.8 25.088-60.288 25.088h-853.312c-23.424 0-43.52-8.384-60.224-25.088-16.768-16.704-25.088-36.8-25.088-60.288v-580.288c0-23.424 8.32-43.52 25.088-60.224 16.704-16.704 36.8-25.088 60.224-25.088h290.176c0-13.504-2.816-27.392-8.512-41.6s-11.392-26.624-17.088-37.248c-5.696-10.752-8.512-18.56-8.512-23.488 0-9.28 3.392-17.28 10.176-24s14.72-10.176 24-10.176h273.024c9.28 0 17.344 3.456 24 10.176 6.784 6.72 10.112 14.72 10.112 24 0 4.608-2.816 12.352-8.512 23.168s-11.392 23.488-17.088 37.888-8.576 28.096-8.576 41.344h290.176c23.424 0 43.52 8.384 60.224 25.088s25.088 36.736 25.088 60.16v580.288c0 23.488-8.384 43.584-25.088 60.288zM955.776 362.688c0-4.608-1.728-8.64-5.12-12.032s-7.424-5.056-12.032-5.056h-853.312c-4.608 0-8.576 1.664-11.968 5.056s-5.12 7.36-5.12 12.032v443.712c0 4.608 1.664 8.64 5.12 12.032 3.392 3.328 7.36 5.056 11.968 5.056h853.376c4.544 0 8.64-1.664 11.968-5.056 3.392-3.392 5.12-7.36 5.12-12.032v-443.712z" />
<glyph unicode="&#xe919;" glyph-name="ticket-number" d="M943.36 745.344h-862.784c0-44.16-36.096-80-80.576-80v-37.376c17.984 0 32.576-14.464 32.576-32.32s-14.592-32.32-32.576-32.32v-33.728c17.984 0 32.576-14.528 32.576-32.384s-14.592-32.32-32.576-32.32v-33.728c17.984 0 32.576-14.464 32.576-32.32s-14.592-32.384-32.576-32.384v-33.664c17.984 0 32.576-14.528 32.576-32.384 0-17.792-14.592-32.32-32.576-32.32v-37.376c44.48 0 80.576-35.84 80.576-80h862.784c0 44.16 36.096 80 80.64 80v37.376c-17.984 0-32.64 14.528-32.64 32.32 0 17.856 14.656 32.384 32.64 32.384v33.664c-17.984 0-32.64 14.528-32.64 32.384s14.656 32.256 32.64 32.256v33.792c-17.984 0-32.64 14.528-32.64 32.32 0 17.856 14.656 32.384 32.64 32.384v33.728c-17.984 0-32.64 14.464-32.64 32.32s14.656 32.32 32.64 32.32v37.376c-44.48 0-80.64 35.776-80.64 80z" />
<glyph unicode="&#xe91a;" glyph-name="ticket" d="M912.448 454.4l-81.472 114.432 74.752-32.64c-8.832-20.288 0.448-43.904 20.736-52.736 1.664-0.768 3.456-1.216 5.12-1.664l-13.248-30.4c-1.472 0.96-3.008 1.856-4.672 2.624-0.384 0.192-0.768 0.256-1.216 0.384zM20.8 432.256l453.568-197.76-287.168 403.2 14.4 10.24c10.048 7.168 12.416 21.184 5.248 31.168l-10.304 14.464 14.4 10.304 40.576 28.928 10.24-14.464c4.16-5.888 11.008-9.408 18.24-9.408 4.672 0 9.152 1.408 12.992 4.16 4.864 3.456 8.128 8.576 9.088 14.528 1.024 5.888-0.32 11.84-3.84 16.704l-10.24 14.336 40.832 29.12-128.576 56.064c-6.592-15.040-21.312-24.064-36.8-24.064-5.312 0-10.752 1.088-16 3.328l-12.8-29.376c20.288-8.832 29.568-32.448 20.736-52.736-6.592-15.104-21.312-24.128-36.8-24.128-5.312 0-10.752 1.088-16 3.328l-12.8-29.376c20.288-8.832 29.568-32.448 20.736-52.736-6.592-15.104-21.312-24.064-36.8-24.064-5.312 0-10.752 1.088-16 3.328l-12.8-29.376c20.288-8.832 29.568-32.448 20.736-52.736-6.656-15.168-21.376-24.128-36.8-24.128-5.376 0-10.752 1.088-16 3.392l-12.864-29.44c20.352-8.832 29.632-32.448 20.8-52.8zM303.296 698.688c-7.040-5.056-15.168-7.488-23.232-7.488-12.48 0-24.832 5.888-32.64 16.832l-26.176-18.624c12.864-17.984 8.64-43.008-9.344-55.872l446.528-626.944c7.040 5.12 15.168 7.488 23.232 7.488 12.544 0 24.832-5.888 32.704-16.896 1.024-1.472 1.728-3.136 2.624-4.608l27.008 19.264c-1.28 1.28-2.496 2.496-3.584 3.968-12.8 18.112-8.704 43.136 9.408 55.872 6.976 5.12 15.104 7.488 23.168 7.488 12.544 0 24.896-5.888 32.704-16.896 1.088-1.344 1.792-3.008 2.688-4.608l26.944 19.264c-1.216 1.28-2.496 2.496-3.584 3.968-12.8 18.112-8.576 43.136 9.408 56 6.976 4.992 15.168 7.36 23.168 7.36 12.544 0 24.896-5.888 32.704-16.768 1.088-1.6 1.792-3.136 2.688-4.736l26.944 19.264c-1.216 1.28-2.496 2.496-3.52 3.968-12.864 18.112-8.64 43.136 9.344 55.872 7.040 5.12 15.168 7.488 23.232 7.488 12.48 0 24.832-5.888 32.64-16.896 1.088-1.344 1.792-3.008 2.688-4.608l26.944 19.264c-1.216 1.28-2.432 2.496-3.52 3.968-12.864 18.112-8.64 43.136 9.344 56l-91.52 128.32-6.080 9.088-0.896 1.216-347.84 488.32c-7.040-5.056-15.168-7.488-23.168-7.488-12.544 0-24.896 5.888-32.704 16.832l-26.048-18.56c12.8-18.048 8.64-43.072-9.408-55.872-7.040-5.056-15.168-7.488-23.232-7.488-12.544 0-24.896 5.888-32.704 16.832l-26.112-18.624c6.272-8.768 8.384-19.264 6.912-29.12-0.832-5.824-3.008-11.456-6.464-16.512-2.56-3.84-5.824-7.36-9.856-10.24-1.6-1.152-3.392-1.664-5.056-2.56-5.76-3.008-11.968-4.928-18.176-4.928-12.544 0-24.896 5.824-32.704 16.832l-26.048-18.624c12.8-17.984 8.64-43.008-9.408-55.808z" />
<glyph unicode="&#xe91b;" glyph-name="travel" d="M956.672 753.28c41.984 56.256 67.2 114.688 67.328 156.416-0.064 13.504-2.816 24.064-7.936 31.936-0.512 0.96-2.048 3.456-4.608 5.952-2.624 2.624-4.928 3.968-5.44 4.224-8.32 5.504-18.944 8.192-32.448 8.192-41.6-0.064-100.032-25.216-156.288-67.328-45.504-34.048-91.008-81.984-153.92-148.352-10.688-11.264-21.952-23.104-33.856-35.52l-122.048 36.544 0.384 0.32c5.056 5.12 8 12.16 7.936 19.072 0.064 7.36-2.944 14.4-8 19.52l-22.016 22.016c-5.12 5.12-12.16 8.064-19.392 8.064-7.36 0-14.208-2.816-19.328-8l-32.96-32.96-17.472 5.184c3.776 4.8 5.824 10.752 5.76 16.64 0.064 7.424-2.752 14.336-7.936 19.456l-22.144 22.144c-5.056 5.056-12.032 7.936-19.392 7.936-7.296 0-14.144-2.816-19.2-8l-30.272-30.208-124.032 37.12c-2.752 0.832-5.696 1.28-8.832 1.28-8.832-0.128-17.024-3.392-22.976-9.28l-43.584-43.648c-4.992-4.928-7.744-11.648-7.68-17.984-0.128-9.344 5.056-17.984 13.312-22.4l260.864-145.728c1.28-0.704 4.992-3.456 6.336-4.8l74.304-74.368c-69.568-73.28-131.456-144.192-179.776-205.952-4.48-5.696-8.768-11.328-12.992-16.896l-201.792 18.304c-0.96 0.192-2.048 0.256-3.456 0.256-9.28-0.192-18.304-3.904-25.024-10.368l-20.288-20.224c-5.056-4.992-7.872-11.648-7.808-18.048-0.128-9.792 5.76-18.88 14.656-22.784l141.952-67.456c1.216-0.64 4.416-2.88 5.44-3.904l11.776-11.712c-3.712-10.432-5.568-19.392-5.632-27.328 0-10.56 3.392-19.648 9.856-26.112l0.512-0.448 0.128-0.128c6.656-6.528 15.36-9.792 26.112-9.792 7.744 0.128 16.64 1.92 27.072 5.696l11.968-12.032c0.896-1.024 3.136-4.096 3.712-5.376l67.264-141.632c4.096-8.896 12.992-14.784 22.656-14.784h0.128c6.656 0 13.056 2.688 17.92 7.552l20.8 20.928c6.144 6.528 9.792 15.424 9.92 24.896 0 1.216 0 2.112-0.064 2.56l-18.368 202.496c5.504 4.16 11.136 8.512 16.896 12.928 61.824 48.384 132.8 110.4 205.952 179.84l74.368-74.56c1.28-1.152 3.968-4.8 4.864-6.4l145.408-260.288c4.352-8.448 12.928-13.632 22.464-13.632 6.72 0 13.184 2.624 18.112 7.616l43.968 43.904c5.696 6.016 8.896 14.080 9.024 22.912 0 2.944-0.448 5.888-1.28 8.576l-37.056 124.032 30.208 30.272c5.056 5.12 7.936 12.032 7.936 19.328s-2.816 14.144-7.936 19.328l-22.144 22.144c-5.056 5.056-12.096 8-19.328 8-6.144 0-12.096-2.048-16.768-5.696l-5.12 17.344 33.024 32.96c5.056 5.12 7.936 12.096 7.936 19.328 0 7.296-2.816 14.144-7.936 19.264l-22.144 22.080c-5.056 5.184-12.096 8.064-19.392 8.064s-14.4-2.944-19.392-8l-0.192-0.192-36.544 121.984c12.608 12.032 24.64 23.488 36.032 34.24 66.24 62.784 113.92 108.096 147.904 153.472z" />
<glyph unicode="&#xe91c;" glyph-name="user" d="M512 320c-172.8 0-512-83.2-512-256v-128h1024v128c0 172.8-339.2 256-512 256zM512 448c140.8 0 256 115.2 256 256s-115.2 256-256 256-256-115.2-256-256 115.2-256 256-256z" />
<glyph unicode="&#xe91d;" glyph-name="water" d="M592.384 886.72v-620.352h308.544l-308.544 620.352zM488.832 266.368v613.12c-307.136-120.896-444.8-582.080-442.176-613.12h442.176zM0 198.208l228.864-188.928h566.272l228.864 188.928h-1024z" />
<glyph unicode="&#xe91e;" glyph-name="category" d="M0 391.104h682.688v113.792h-682.688v-113.792zM0 789.312v-113.728h1024v113.728h-1024zM0 106.688h341.376v113.728h-341.376v-113.728z" />
<glyph unicode="&#xe91f;" glyph-name="marker" d="M537.728 735.616c72.704 0 131.904-58.752 131.904-130.88s-59.2-130.88-131.904-130.88c-72.768 0-131.904 58.752-131.904 130.88 0 72.192 59.2 130.88 131.904 130.88zM789.888 854.912c-68.288 67.776-159.040 105.088-255.488 105.088-96.512 0-187.2-37.312-255.424-105.088-126.272-125.312-141.952-361.088-33.984-504l289.408-414.912 289.024 414.336c108.416 143.488 92.672 379.264-33.536 504.576z" />
<glyph unicode="&#xe920;" glyph-name="brush" d="M326.208 722.496c11.136 17.728 30.4 28.352 51.392 28.352 11.392 0 22.528-3.264 32.192-9.344 28.352-17.792 36.864-55.424 19.008-83.776-11.136-17.728-30.336-28.416-51.328-28.416-11.392 0-22.592 3.2-32.256 9.344-13.696 8.704-23.232 22.144-26.816 37.952-3.648 15.872-0.832 32.128 7.808 45.888zM131.968 361.6c11.2 17.728 30.4 28.416 51.392 28.416 11.392 0 22.592-3.264 32.256-9.344 13.696-8.704 23.232-22.144 26.816-37.952s0.832-32.128-7.872-45.888c-11.136-17.728-30.4-28.352-51.392-28.352-11.392 0-22.528 3.264-32.256 9.344-13.696 8.64-23.232 22.144-26.816 37.952s-0.768 32.128 7.872 45.824zM195.584 495.424c-11.392 0-22.592 3.264-32.256 9.344-13.76 8.64-23.296 22.080-26.88 37.952-3.584 15.808-0.768 32.128 7.808 45.824 11.2 17.792 30.4 28.416 51.456 28.416 11.392 0 22.528-3.2 32.192-9.344 28.288-17.856 36.864-55.424 19.008-83.776-11.136-17.792-30.336-28.416-51.328-28.416zM733.888 495.040c30.656 45.248 63.040 90.24 93.888 130.24 4.992-4.48 10.56-8.896 16.64-13.12 9.984-6.976 20.48-12.352 31.168-16-25.984-44.544-53.952-88.704-87.808-138.624-55.616-82.112-113.408-158.4-162.816-214.72-27.584-31.488-51.776-55.808-70.336-70.848 7.104 22.976 20.864 54.656 40 92.032 34.112 66.816 83.584 148.928 139.264 231.040zM655.168 605.12c-11.2-17.792-30.4-28.416-51.456-28.416-11.392 0-22.528 3.264-32.192 9.344-13.76 8.64-23.232 22.144-26.88 37.952-3.52 15.872-0.768 32.128 7.872 45.888 11.136 17.728 30.336 28.352 51.392 28.352 11.456 0 22.656-3.2 32.256-9.344 13.76-8.64 23.232-22.144 26.88-37.952 3.52-15.808 0.768-32.128-7.872-45.824zM1003.328 837.824c-1.92 4.864-6.336 8.256-11.52 8.96-5.184 0.64-10.304-1.6-13.312-5.888-17.92-25.28-41.536-33.664-68.864-43.392-22.016-7.872-44.8-16-69.44-33.664-34.816-25.088-50.688-59.2-42.752-91.52l-0.896-1.088c-14.528 21.12-30.4 40.704-47.040 58.112-78.080 81.6-187.2 130.688-299.456 134.656-4.928 0.128-9.92 0.256-14.912 0.256-125.312 0-245.184-56.128-328.96-153.92-83.328-97.344-120.256-224-101.312-347.584 1.6-10.304 3.584-20.736 5.888-30.976 30.784-135.872 109.504-239.168 215.936-283.52 26.24-10.944 52.672-16.512 78.592-16.512 64.448 0 120.704 34.56 154.432 94.72 12.8 22.848 21.056 46.592 24.512 70.464 2.048 14.016 0.64 28.032-0.704 41.664-1.408 14.016-2.688 27.264-0.576 40.576 4.864 30.592 26.176 48.832 57.024 48.832 8.768 0 17.792-1.408 26.688-4.224-10.496-19.328-19.968-37.696-28.352-54.656-17.6-36.16-29.76-66.048-36.16-88.96-3.904-14.144-14.336-51.648 11.072-69.248 8.064-5.632 18.304-7.616 28.992-5.632 9.6 1.728 38.784 7.168 121.792 101.888 22.272 25.344 46.272 54.72 71.36 87.36 64.384 21.76 114.496 75.84 127.744 137.92 3.264 15.552 4.672 32.128 4.096 49.408 24.128 37.312 45.248 72.128 66.56 109.568 0.384 0.704 0.832 1.472 1.216 2.304 30.848 8.448 57.472 32.576 73.152 66.24 22.72 49.216 21.056 112.32-4.8 177.856z" />
<glyph unicode="&#xe921;" glyph-name="outdoors-camping" d="M431.936 742.848c0 75.648 60.992 136.896 136.128 136.896 75.2 0 136.128-61.248 136.128-136.896 0-75.584-60.928-136.832-136.128-136.832-75.136 0.064-136.128 61.312-136.128 136.832zM854.912 302.144l-89.024 184.128-88.96-184.128 42.944 27.392 33.728-77.376 31.488 59.84c54.080-11.84 38.656-9.856 69.824-9.856zM548.224 270.464l-88.64 157.248-88.704-157.248 49.792 34.688 72-65.536 55.552 30.848zM346.88 355.328l-88.832 227.072-88.896-227.072 45.376 36.864 43.52-62.656 48.448 36.544 40.384-10.752zM963.968 16.256h-903.936c-42.24 0-71.296 42.816-55.808 82.368l198.016 505.856c19.2 49.152 88.768 51.712 110.528 2.368 0.384-0.768 0.768-1.536 1.024-2.368l72.32-184.768 21.312 37.696c22.912 40.704 81.344 40.704 104.32 0l93.504-165.824 106.752 220.992c21.888 45.12 86.080 45.184 107.904 0l198.080-409.728c19.264-40.064-9.856-86.592-54.016-86.592z" />
<glyph unicode="&#xe922;" glyph-name="recreational-vehicles" d="M990.848 284.928h-117.76c14.336 26.944 18.304 58.432 10.688 88.512l-48.448 190.464c-33.152 130.496-151.232 221.952-286.656 221.952h-240.512c-147.264 0-266.688-118.656-266.688-265.024v-195.904h-20.352c-11.648 0-21.12-9.344-21.12-20.992v-64.192c0-11.648 9.472-20.992 21.12-20.992h75.2c0 93.76 76.8 170.048 171.136 170.048 94.4 0 171.136-76.032 171.136-169.856h50.368v366.4c0 19.392 15.808 35.072 35.264 35.072h159.936c19.52 0 35.328-15.68 35.328-35.072v-366.464h178.304v-75.904c0-18.176 14.784-32.896 33.088-32.896s33.152 14.656 33.152 32.896v75.904h26.88c18.304 0 33.152 14.912 33.152 33.152-0.064 18.176-14.848 32.896-33.216 32.896zM234.24 462.464h-52.16c-15.872 0-28.672 12.736-28.672 28.48v100.992c0 15.744 12.864 28.48 28.672 28.48h52.16v-157.952zM383.040 490.944c0-15.744-12.864-28.48-28.672-28.48h-53.952v157.952h53.952c15.808 0 28.672-12.736 28.672-28.48v-100.992zM267.456 323.008c-57.92 0-104.96-46.656-104.96-104.256s46.976-104.32 104.96-104.32c57.984 0 104.96 46.656 104.96 104.32s-46.976 104.256-104.96 104.256zM267.456 185.984c-18.176 0-32.96 14.656-32.96 32.768 0 18.048 14.72 32.704 32.96 32.704s32.96-14.656 32.96-32.704c0-18.112-14.784-32.768-32.96-32.768zM616.384 428.544c0-10.304-8.384-18.688-18.752-18.688h-53.696c-10.368 0-18.752 8.384-18.752 18.688 0 10.24 8.384 18.624 18.752 18.624h53.696c10.368 0 18.752-8.384 18.752-18.624z" />
<glyph unicode="&#xe923;" glyph-name="sports" d="M722.816 537.792l-40.64 40.896 31.552 31.808c11.136 11.136 11.136 29.248 0 40.384-11.072 11.2-29.056 11.2-40.192 0l-31.552-31.808-40.64 40.896c-11.136 11.136-29.12 11.136-40.192 0-11.136-11.136-11.136-29.248 0-40.384l40.64-40.896-46.464-46.72-40.64 40.896c-11.072 11.136-29.12 11.136-40.192 0s-11.072-29.248 0-40.384l40.64-40.896-46.464-46.72-40.64 40.832c-11.072 11.136-29.056 11.136-40.192 0-11.072-11.136-11.072-29.248 0-40.384l40.64-40.896-46.464-46.72-40.64 40.96c-11.136 11.136-29.12 11.136-40.192 0-11.136-11.2-11.136-29.312 0-40.448l40.64-40.896-31.616-31.744c-11.072-11.2-11.072-29.312 0-40.448 5.568-5.568 12.864-8.384 20.096-8.384s14.528 2.816 20.096 8.384l31.616 31.808 40.64-40.96c5.504-5.568 12.8-8.384 20.096-8.384s14.592 2.816 20.096 8.384c11.136 11.2 11.136 29.312 0 40.448l-40.64 40.896 46.464 46.656 40.64-40.768c5.504-5.632 12.8-8.384 20.096-8.384s14.592 2.752 20.096 8.384c11.072 11.136 11.072 29.248 0 40.384l-40.576 40.832 46.464 46.72 40.64-40.832c5.568-5.632 12.8-8.384 20.032-8.384 7.296 0 14.592 2.752 20.096 8.384 11.072 11.136 11.072 29.248 0 40.384l-40.576 40.896 46.464 46.72 40.64-40.896c5.568-5.568 12.864-8.384 20.096-8.384s14.528 2.816 20.096 8.384c11.008 11.136 11.008 29.248-0.064 40.384zM996.992 540.032c-28.032-126.464-85.12-263.232-195.456-381.888-0.448-0.512-0.896-0.96-1.344-1.344-117.44-110.464-253.184-168-379.904-196.288l-393.28 395.456c28.032 126.464 85.12 263.232 195.392 381.888 0.448 0.448 0.96 0.832 1.408 1.344 117.44 110.4 253.248 168 379.968 196.288l393.216-395.456zM14.464 287.744c-13.888-93.12-13.312-177.216-8.896-239.36 4.16-58.368 51.008-105.472 109.056-109.696 25.024-1.728 50.816-2.688 76.672-2.688v0c48.704 0 103.424 3.136 161.216 11.84l-338.048 339.904zM671.488 948.16c57.856 8.704 112.576 11.84 161.28 11.84 25.792 0 51.648-0.96 76.672-2.688 57.984-4.16 104.896-51.328 108.992-109.632 4.416-62.208 4.992-146.304-8.896-239.424l-338.048 339.904z" />
<glyph unicode="&#xe924;" glyph-name="share" d="M823.296 599.808c-41.216 0-77.184-15.424-102.912-41.152l-365.376 210.944c5.184 10.304 5.184 25.728 5.184 36.032 0 87.488-66.88 154.368-154.368 154.368s-154.368-66.88-154.368-154.368c0-87.488 66.88-154.368 154.368-154.368 41.152 0 77.184 15.424 102.912 41.152l365.312-210.944c-5.12-10.304-5.12-25.728-5.12-36.032s0-25.728 5.12-36.032l-365.312-216.064c-25.728 25.664-61.824 41.216-102.912 41.216-82.304 0-149.248-66.944-149.248-149.248s66.944-149.312 149.248-149.312 149.184 66.944 149.184 149.248c0 10.304 0 20.608-5.12 35.968l365.376 216.128c25.728-25.664 61.76-41.216 102.912-41.216 87.424 0 154.368 66.944 154.368 154.432s-61.76 149.248-149.248 149.248z" />
</font>
</defs>
</svg>
